<mxfile host="app.diagrams.net" modified="2024-01-04T17:31:54.089Z" agent="Mozilla/5.0 (Windows NT 10.0; Win64; x64) AppleWebKit/537.36 (KHTML, like Gecko) Chrome/120.0.0.0 Safari/537.36" version="22.1.16" etag="qYrCsAr3vGw4Ru6yn8P8" type="github">
  <diagram name="Page-1" id="T6ZFFlQPopU9UipJsvIC">
    <mxGraphModel>
      <root>
        <mxCell id="0" />
        <mxCell id="1" parent="0" />
      </root>
    </mxGraphModel>
  </diagram>
</mxfile>
